# xmcd
#
# Track frame offsets: 
#        150
#        17910
#        32085
#        49162
#        68137
#        85687
#        103687
#        119940
#        139590
#        153090
#
# Disc length: 2240 seconds
#
# Revision: 2
# Processed by: cddbd v1.5.2PL0 Copyright (c) Steve Scherf et al.
# Submitted via: ExactAudioCopy v0.99pb5
#
DISCID=8208be0a
DTITLE=Ray Bonneville - Easy Gone
DYEAR=2014
DGENRE=Blues
TTITLE0=Who Do Call the Shots
TTITLE1=Shake Off My Blues
TTITLE2=Where Has My Easy Gone
TTITLE3=Love Is Wicked
TTITLE4=When I Get to New York
TTITLE5=Lone Freighter's Wail
TTITLE6=So Lonesome I Could Cry
TTITLE7=South Little One
TTITLE8=Mile Marker 41
TTITLE9=Two Bends in the Road
EXTD=
EXTT0=
EXTT1=
EXTT2=
EXTT3=
EXTT4=
EXTT5=
EXTT6=
EXTT7=
EXTT8=
EXTT9=
PLAYORDER=
